HIERARCHY
ROOT Hips
{
  OFFSET -157.886 105.739 -23.0268
  CHANNELS 6 Xposition Yposition Zposition Zrotation Xrotation Yrotation
  JOINT ToSpine
  {
    OFFSET -2.69724 7.43032 -0.144315
    CHANNELS 3 Zrotation Xrotation Yrotation
    JOINT Spine
    {
      OFFSET -0.0310711 10.7595 1.96963
      CHANNELS 3 Zrotation Xrotation Yrotation
      JOINT Spine1
      {
        OFFSET 19.9056 3.91189 0.764692
        CHANNELS 3 Zrotation Xrotation Yrotation
        JOINT Neck
        {
          OFFSET 25.9749 7.03908 -0.130764
          CHANNELS 3 Zrotation Xrotation Yrotation
          JOINT Head
          {
            OFFSET 9.52751 0.295786 -0.907742
            CHANNELS 3 Zrotation Xrotation Yrotation
            End Site
            {
              OFFSET 16.4037 0.713936 2.7358
            }
          }
        }
        JOINT LeftShoulder
        {
          OFFSET 17.7449 4.33886 11.7777
          CHANNELS 3 Zrotation Xrotation Yrotation
          JOINT LeftArm
          {
            OFFSET 0.911315 1.27913 9.80584
            CHANNELS 3 Zrotation Xrotation Yrotation
            JOINT LeftForeArm
            {
              OFFSET 28.6126 1.18197 -3.53199
              CHANNELS 3 Zrotation Xrotation Yrotation
              JOINT LeftHand
              {
                OFFSET 27.5088 0.0218783 0.327423
                CHANNELS 3 Zrotation Xrotation Yrotation
                End Site
                {
                  OFFSET 18.6038 -0.000155887 0.382096
                }
              }
            }
          }
        }
        JOINT RightShoulder
        {
          OFFSET 17.1009 2.89543 -12.2328
          CHANNELS 3 Zrotation Xrotation Yrotation
          JOINT RightArm
          {
            OFFSET 1.4228 0.178766 -10.211
            CHANNELS 3 Zrotation Xrotation Yrotation
            JOINT RightForeArm
            {
              OFFSET 28.733 1.87905 2.64907
              CHANNELS 3 Zrotation Xrotation Yrotation
              JOINT RightHand
              {
                OFFSET 27.4588 0.290562 -0.101845
                CHANNELS 3 Zrotation Xrotation Yrotation
                End Site
                {
                  OFFSET 17.8396 -0.255518 -0.000602873
                }
              }
            }
          }
        }
      }
    }
  }
  JOINT LeftUpLeg
  {
    OFFSET -5.61296 -2.22332 -10.2353
    CHANNELS 3 Zrotation Xrotation Yrotation
    JOINT LeftLeg
    {
      OFFSET 2.56703 -44.7417 -7.93097
      CHANNELS 3 Zrotation Xrotation Yrotation
      JOINT LeftFoot
      {
        OFFSET 3.16933 -46.5642 -3.96578
        CHANNELS 3 Zrotation Xrotation Yrotation
        JOINT LeftToeBase
        {
          OFFSET 0.346054 -6.02161 12.8035
          CHANNELS 3 Zrotation Xrotation Yrotation
          End Site
          {
            OFFSET 0.134235 -1.35082 5.13018
          }
        }
      }
    }
  }
  JOINT RightUpLeg
  {
    OFFSET -5.7928 -1.72406 10.6446
    CHANNELS 3 Zrotation Xrotation Yrotation
    JOINT RightLeg
    {
      OFFSET -2.57161 -44.7178 -7.85259
      CHANNELS 3 Zrotation Xrotation Yrotation
      JOINT RightFoot
      {
        OFFSET -3.10148 -46.5936 -4.03391
        CHANNELS 3 Zrotation Xrotation Yrotation
        JOINT RightToeBase
        {
          OFFSET -0.0828122 -6.13587 12.8035
          CHANNELS 3 Zrotation Xrotation Yrotation
          End Site
          {
            OFFSET -0.131328 -1.35082 5.13018
          }
        }
      }
    }
  }
}
MOTION
Frames:	20
Frame Time:	0.0333333
-143.04 104.615 -26.4701 14.8473 -71.8083 -84.4783 -70.1915 0 88.8779 96.861 71.9905 -3.33629 4.15505 21.4757 1.49155 -153.144 18.6523 177.84 -149.218 54.8241 163.67 2.76961 0.86931 -27.2984 -111.226 58.2306 -85.4272 -9.26293 48.7586 11.4586 3.93962 -0.188298 -3.59114 0.302771 -1.0123 24.5736 -82.5185 -47.3604 88.8465 2.87797 -10.5299 17.8838 11.0319 -0.224349 -2.83113 -48.5726 10.5527 97.9403 1.34913 24.6944 -23.7655 -0.0127178 4.72943 0.227542 -3.78344 5.00503 17.8496 -50.4263 -21.6442 76.445 1.52338 32.4422 10.2514 -7.79562 -7.87167 1.14524 3.61477 8.98641 -14.6287 
-141.124 104.072 -26.259 16.1104 -71.6157 -83.6443 -70.1915 0 88.8779 96.9509 71.9882 -3.7197 3.99491 21.5153 1.34147 -153.824 18.9052 178.543 -150.611 55.4707 164.986 2.78618 0.784682 -27.601 -111.614 57.6626 -85.3041 -8.9602 48.2766 11.352 3.42743 -0.173393 -3.84888 0.305323 -1.04491 24.3072 -83.8532 -46.9633 87.7698 2.84188 -11.2352 17.5337 10.7046 -0.237222 -3.05483 -47.8416 11.5126 96.5253 1.48162 26.2149 -22.675 -0.406756 5.13929 0.321429 -3.80195 6.92801 18.4898 -49.4143 -23.2704 77.8987 1.6936 33.9476 9.40762 -7.81345 -7.80843 1.14594 3.94649 7.31401 -14.6123 
-139.123 103.455 -25.9025 15.8886 -71.7809 -84.0527 -70.1915 0 88.8779 98.09 71.9132 -5.06791 3.84049 21.576 0.929609 -154.916 18.986 179.576 -154.253 56.3696 167.548 2.76285 0.871717 -27.2261 -111.895 57.5096 -84.8676 -8.74764 47.7016 11.2276 3.90806 -0.18535 -3.54374 0.278218 -0.807253 24.3228 -85.3997 -46.4191 86.8999 2.40161 -12.1332 16.6927 10.8075 -0.224104 -2.87872 -47.8551 13.029 95.8313 1.40723 27.4285 -22.6516 -0.477636 5.01415 0.323764 -3.85797 8.921 19.1819 -48.6557 -24.5797 79.4708 1.94081 35.3895 8.48894 -7.74896 -7.71514 1.14214 4.29421 5.61221 -14.6044 
-137.091 102.522 -25.6378 14.6427 -71.4928 -85.2348 -70.1915 0 88.8779 96.4688 71.9234 -3.79648 4.47135 21.5548 0.550421 -154.831 18.4415 178.049 -149.964 54.8223 164.145 2.80817 1.13439 -27.2756 -111.606 56.9318 -85.4112 -8.64426 47.1962 11.1211 4.68965 -0.223971 -3.58587 0.246695 -0.538367 24.6423 -84.2331 -45.5696 88.299 1.90208 -11.1779 16.5443 10.9537 -0.256052 -3.1972 -47.3423 14.793 95.082 1.4279 28.3779 -22.7984 -0.394562 4.35748 0.26127 -3.45397 10.899 18.3881 -46.7944 -25.8647 80.7269 2.19839 37.7523 8.63015 -8.01045 -7.82825 1.15651 4.91111 3.98347 -15.3222 
-134.96 101.384 -25.2486 13.6891 -71.8056 -86.0074 -70.1915 0 88.8779 97.7969 72.0203 -5.80866 4.29371 21.6238 0.646547 -155.705 18.6952 179.155 -152.503 55.7461 166.387 2.83343 1.12634 -27.5359 -111.535 56.2314 -85.4078 -8.60197 46.949 11.0702 5.46089 -0.287934 -4.1673 0.249901 -0.565127 24.344 -84.4079 -45.2736 88.3978 1.8344 -11.3963 16.3639 10.5858 -0.192628 -2.57483 -47.4888 16.7427 95.0895 1.62775 29.1171 -23.5178 0.0128944 4.39869 0.199603 -3.25221 11.2218 17.8405 -45.5546 -27.3349 81.5678 2.41698 40.3253 9.09445 -8.35044 -8.1632 1.17453 5.38774 2.0881 -15.5542 
-132.673 100.009 -24.8393 13.3084 -72.0847 -85.7329 -70.1915 0 88.8779 99.4876 71.8364 -7.95538 3.89879 21.5235 0.525789 -155.46 18.387 177.872 -150.552 54.9597 164.799 2.78922 1.22794 -26.9495 -111.573 55.8991 -85.0769 -8.69485 47.3203 11.1484 5.03435 -0.293459 -4.7321 0.311024 -1.0901 24.3608 -86.7862 -45.2356 87.8071 1.93161 -13.6926 15.567 10.3721 -0.147838 -2.10102 -47.4074 18.8084 94.3612 1.72081 29.7804 -22.8423 -0.0453081 4.6212 0.225206 -3.27568 10.6403 17.7573 -44.3711 -28.6494 82.1444 2.69253 43.0952 9.47342 -8.62742 -8.22848 1.18837 6.20397 -0.593969 -16.3134 
-130.168 98.3731 -24.523 13.4592 -71.8462 -84.6638 -70.1915 0 88.8779 99.058 71.8485 -8.08433 3.51463 21.3889 1.03466 -155.383 18.3265 178.1 -152.147 55.3222 166.519 2.77057 1.1717 -26.8485 -110.954 55.2326 -85.5692 -9.03274 47.917 11.2757 4.58003 -0.263612 -4.64922 0.326444 -1.23379 24.1646 -82.111 -45.8164 89.8612 2.79713 -10.04 17.9761 10.4461 -0.170088 -2.34598 -46.3676 20.3734 91.3439 1.22669 30.9696 -19.9867 -0.339043 5.49865 0.336691 -3.59479 9.67781 18.5325 -42.5093 -29.9011 82.9492 3.03861 46.2358 9.60724 -8.44288 -8.10388 1.17925 6.92966 -3.14134 -16.9408 
-127.372 96.5934 -24.1509 15.3312 -72.2836 -81.765 -70.1915 0 88.8779 98.8321 71.6036 -8.86851 4.20884 20.9563 1.40464 -155.642 18.3388 177.312 -151.616 55.2444 166.216 2.77573 1.24456 -26.7899 -109.965 54.5053 -87.1169 -9.24204 47.9873 11.2854 4.25981 -0.259577 -4.97671 0.32544 -1.20177 24.6513 -79.5123 -45.6852 91.1596 3.0187 -6.46492 19.6268 10.5574 -0.151932 -2.11317 -46.1929 20.6575 85.9104 0.34169 32.2837 -16.0596 -0.23031 5.6919 0.333623 -4.24599 7.76168 20.1929 -42.076 -31.4043 83.453 3.36476 48.7814 9.73797 -8.44061 -7.85655 1.17966 7.62009 -5.83382 -17.4325 
-124.272 94.7459 -23.8016 16.0322 -72.4278 -79.0596 -70.1915 0 88.8779 99.9485 71.4471 -10.1063 3.87989 20.7496 1.9648 -155.977 18.4564 177.227 -155.771 56.2614 169.199 2.65505 1.05983 -25.8738 -108.726 54.2617 -88.1329 -9.90247 49.029 11.5167 4.95904 -0.298238 -4.93518 0.376748 -1.58292 25.3473 -78.9689 -45.3048 91.3622 2.76554 -5.66398 19.6845 10.5382 -0.119139 -1.73986 -45.4794 21.2302 78.9083 -1.55199 34.3398 -12.3711 -0.344821 4.59943 0.270027 -5.10214 2.28175 22.2084 -42.2709 -31.714 83.6451 3.52036 50.121 9.3632 -8.59335 -7.92457 1.18751 7.99877 -7.34222 -17.6903 
-120.553 93.0665 -23.4908 20.3752 -72.5661 -72.4514 -70.1915 0 88.8779 102.696 70.6517 -13.3406 2.62895 19.9924 3.01513 -154.496 18.339 174.163 -153.032 55.6127 166.897 2.35978 0.624687 -23.4313 -108.914 55.586 -87.1706 -10.1977 50.1615 11.7138 5.28928 -0.278453 -4.14722 0.468581 -2.20385 26.3136 -79.2691 -45.3096 90.2506 2.80205 -4.52914 20.2185 10.7584 -0.121503 -1.73595 -44.5754 20.3677 72.8962 -2.66351 37.4088 -11.9419 -1.73836 2.7187 0.329948 -5.83813 -4.55887 24.0757 -44.4763 -32.354 83.045 3.45493 49.7581 9.17191 -7.84299 -7.79538 1.14771 8.23994 -7.51755 -18.397 
-116.301 91.6293 -23.0496 22.1117 -72.4359 -68.2434 -70.1915 0 88.8779 102.071 70.5082 -13.1087 2.59771 19.4466 4.68315 -153.473 18.4683 172.611 -152.309 55.6865 166.64 2.26004 -0.00571738 -23.1646 -108.088 55.8426 -87.81 -10.1687 50.7691 11.3229 5.73409 -0.247003 -3.11066 0.590564 -3.03644 26.7852 -81.2241 -45.2711 87.791 3.1429 -3.16669 21.3636 10.8095 -0.1201 -1.71304 -42.8184 20.2539 71.3464 -2.86723 41.6712 -11.5537 -1.75248 -0.655579 0.0498839 -6.19555 -15.9138 24.0265 -46.9935 -32.2647 83.1611 3.26684 47.7389 9.79176 -7.41215 -7.68731 1.1238 8.19921 -5.38281 -19.5723 
-111.663 90.8898 -22.7737 25.634 -71.6224 -62.8106 -70.1915 0 88.8779 100.505 70.0633 -12.4249 2.6188 18.5529 5.84695 -152.263 18.4624 170.386 -148.904 55.0029 164.105 2.20769 -0.541451 -23.3096 -107.087 56.1772 -89.0428 -10.3945 52.0212 11.1747 6.32328 -0.234284 -2.48483 0.671416 -3.54237 27.2588 -84.4519 -45.0761 84.0817 4.12657 -3.62461 22.7443 11.329 -0.109623 -1.5354 -39.6027 19.4383 72.1647 -3.3076 46.3778 -10.7912 1.00101 -1.97017 -0.364707 -6.47039 -23.8388 19.764 -50.021 -33.8901 80.7856 2.92788 44.4339 10.2669 -6.30356 -7.02105 1.05114 6.35673 1.59755 -17.8687 
-106.632 91.1748 -22.7194 30.037 -70.63 -57.2361 -70.1915 0 88.8779 99.7415 69.6506 -12.528 2.89692 17.9822 6.17703 -151.709 18.7233 168.784 -148.338 55.2574 163.651 2.08478 -1.44659 -23.1027 -104.308 56.9959 -92.9297 -11.7914 51.2875 12.1212 7.49575 -0.255696 -2.1445 0.7976 -4.27482 27.8829 -89.4865 -44.7977 79.6186 4.69835 -4.43268 23.2951 11.3338 -0.0644913 -1.05327 -36.754 17.9795 74.4384 -3.99537 50.4144 -11.7069 3.73977 -1.16611 -0.607823 -7.10828 -29.5848 16.2587 -53.902 -36.8691 75.9365 2.55899 39.7401 10.747 -4.05499 -5.28026 0.843403 1.29238 15.0129 -11.9706 
-101.926 92.4106 -22.7838 31.2779 -69.4896 -54.1116 -70.1915 0 88.8779 99.0968 69.6688 -11.5998 3.22062 17.7759 6.9865 -151.503 19.341 169.043 -149.194 56.2108 164.76 2.1177 -1.60675 -23.7917 -102.303 57.4511 -97.1794 -12.6574 53.6626 12.675 7.88154 -0.315624 -2.80304 0.81587 -4.45876 27.6499 -93.9923 -45.1346 75.4421 5.17964 -5.77201 23.0223 11.3102 -0.0893922 -1.32125 -33.9873 17.5241 75.7323 -4.84679 53.6287 -14.8646 4.18692 -0.904623 -0.65053 -7.30515 -30.7553 14.9569 -57.0203 -37.036 71.7811 1.75014 34.2824 10.6479 -2.18217 -2.50489 0.569652 -9.08348 31.4338 -0.995416 
-98.2296 93.7875 -23.1332 28.8387 -69.0931 -55.203 -70.1915 0 88.8779 99.3133 70.5857 -11.4655 3.22639 18.8562 6.74357 -150.854 19.8763 168.707 -150.952 57.3434 166.83 2.05894 -1.85086 -23.4006 -99.1772 57.5964 -101.849 -13.6045 54.5721 13.0061 8.10902 -0.34019 -2.99724 0.826641 -4.43152 28.0696 -97.0426 -45.756 72.8003 5.19909 -8.29274 20.9837 11.0244 -0.087474 -1.32866 -32.1216 17.7848 78.1284 -5.35041 55.5343 -15.9006 4.97558 -0.251417 -0.718754 -7.22897 -29.9366 14.086 -55.9928 -34.1305 74.0512 0.828243 32.7035 10.8632 -2.93685 -2.43778 0.634612 -13.3741 36.0976 3.63112 
-95.3739 95.3525 -23.5081 25.3495 -69.229 -58.4182 -70.1915 0 88.8779 99.0007 71.6333 -11.3227 3.77417 20.2252 5.62407 -150.511 20.3625 169.334 -152.951 58.3381 169.214 2.07731 -1.61902 -23.279 -95.6445 56.6235 -105.713 -13.6384 52.8793 11.9813 7.01937 -0.246756 -2.32542 0.783199 -4.13489 28.1112 -99.0293 -46.2048 72.1146 4.37231 -12.2564 17.6995 10.1885 -0.0763836 -1.27342 -32.907 16.8599 79.6555 -5.08521 54.6185 -15.0621 4.97678 0.184332 -0.708849 -7.06513 -28.7237 13.6728 -53.3279 -31.7914 75.864 1.71298 34.8246 10.8821 -3.70086 -5.75271 0.839415 -6.71377 29.3 -3.81445 
-92.8439 96.961 -23.8297 22.7646 -69.5042 -59.7046 -70.1915 0 88.8779 99.8403 71.9328 -11.541 4.33592 20.7388 4.94764 -150.431 20.475 169.92 -154.186 58.6457 170.068 2.10815 -1.57268 -23.6077 -94.4496 55.2574 -106.178 -11.1777 50.595 8.40551 5.92776 -0.279875 -3.5267 0.697345 -3.61159 27.8089 -100.638 -46.6404 72.487 3.32714 -16.8232 14.5807 9.31638 -0.0403382 -0.900391 -34.2243 15.8896 78.9999 -4.53304 52.7299 -13.3916 5.83171 1.36443 -0.785259 -7.11143 -29.0829 13.8605 -52.2161 -27.2998 75.9573 2.16929 36.4662 10.2028 -4.948 -8.21266 1.00561 -2.39932 23.7732 -8.91194 
-90.7201 98.5073 -24.1439 23.8605 -69.6598 -58.1367 -70.1915 0 88.8779 101.05 71.6953 -13.3104 4.71781 20.6861 4.2715 -149.801 20.4725 170.234 -154.543 58.7495 170.856 2.03392 -1.96921 -23.2592 -94.2163 54.5944 -105.336 -8.4865 47.7451 4.72232 8.44978 -0.408436 -3.748 0.688348 -3.52678 27.9493 -101.093 -46.966 73.4636 2.65062 -18.8198 12.9809 8.90831 -0.0436889 -0.970712 -36.3707 14.2648 78.9322 -3.91067 49.8654 -12.0112 5.65283 1.77671 -0.752973 -6.92977 -27.8682 14.2634 -51.7636 -22.9778 75.8836 2.2038 38.8095 7.81656 -5.44403 -8.877 1.04414 0.596749 16.0496 -11.332 
-88.9841 99.6737 -24.4945 23.3164 -69.6215 -58.6356 -70.1915 0 88.8779 100.181 71.8252 -13.5348 4.85364 20.7197 4.05527 -149.038 20.5525 169.983 -152.641 58.5215 169.346 1.9632 -2.19202 -22.6318 -94.8076 54.823 -103.813 -7.07728 45.6465 2.91566 11.8946 -0.562122 -3.60404 0.659559 -3.39176 27.5957 -100.199 -47.9552 74.2085 2.85577 -17.8295 13.7662 8.92677 -0.0584511 -1.17389 -38.3321 13.1323 79.6596 -3.32933 46.4711 -10.6073 5.6447 2.08457 -0.745275 -6.75772 -26.6179 13.6584 -49.6664 -19.1035 75.2803 2.21855 42.8818 4.97793 -6.05274 -9.13318 1.07655 2.88569 9.21073 -13.0508 
-87.1147 100.389 -24.8861 24.0897 -69.694 -58.8063 -70.1915 0 88.8779 99.6411 71.5972 -14.6358 4.82701 20.4528 3.56203 -148.668 20.3953 169.804 -150.248 57.9337 167.883 1.97238 -1.98942 -22.4437 -95.3684 54.6337 -102.227 -6.06706 43.4241 1.42108 11.6024 -0.597515 -4.08619 0.644211 -3.34559 27.2499 -97.7061 -48.9077 76.123 3.28788 -15.7836 15.3215 9.15537 -0.0422083 -0.931398 -40.6762 10.7546 80.0193 -2.85371 43.3765 -9.21468 6.19352 2.39597 -0.814923 -6.72935 -26.3846 13.2259 -47.4947 -16.9717 73.3714 2.43198 47.8749 2.86674 -6.25675 -9.24908 1.0858 4.5451 3.69472 -14.2626 
